<mxfile host="app.diagrams.net" modified="2023-09-21T04:40:03.540Z" agent="Mozilla/5.0 (Windows NT 10.0; Win64; x64) AppleWebKit/537.36 (KHTML, like Gecko) Chrome/116.0.0.0 Safari/537.36" version="21.8.0" etag="QKII0uBXJlu7naHfN2wB" type="github">
  <diagram name="Page-1" id="ucpoQI5Fnj8_0Z0wmXHn">
    <mxGraphModel>
      <root>
        <mxCell id="0" />
        <mxCell id="1" parent="0" />
      </root>
    </mxGraphModel>
  </diagram>
</mxfile>
